<svg xmlns="http://www.w3.org/2000/svg" width="64" height="64" viewBox="0 0 64 64" fill="none">
  <defs>
    <linearGradient id="tm-bg" x1="10" y1="8" x2="54" y2="56" gradientUnits="userSpaceOnUse">
      <stop stop-color="#76D7C4" />
      <stop offset="1" stop-color="#4BAF9D" />
    </linearGradient>
    <linearGradient id="tm-glow" x1="20" y1="18" x2="44" y2="44" gradientUnits="userSpaceOnUse">
      <stop stop-color="#D9FFF7" stop-opacity="0.95" />
      <stop offset="1" stop-color="#FFFFFF" stop-opacity="0.75" />
    </linearGradient>
  </defs>

  <rect x="6" y="6" width="52" height="52" rx="16" fill="#111516" />
  <rect x="8" y="8" width="48" height="48" rx="14" fill="url(#tm-bg)" fill-opacity="0.18" stroke="#76D7C4" stroke-opacity="0.35" />

  <path d="M18 22.5C18 19.4624 20.4624 17 23.5 17H40.5C43.5376 17 46 19.4624 46 22.5V41.5C46 44.5376 43.5376 47 40.5 47H23.5C20.4624 47 18 44.5376 18 41.5V22.5Z" fill="#101818" stroke="#8EF1DE" stroke-width="1.5" />
  <path d="M21.5 23.5L30.1778 31.0833C31.2276 32.0014 32.7724 32.0014 33.8222 31.0833L42.5 23.5" stroke="url(#tm-glow)" stroke-width="2.4" stroke-linecap="round" stroke-linejoin="round" />
  <path d="M24 39H31" stroke="#B9FFF2" stroke-width="2.4" stroke-linecap="round" />
  <path d="M24 34.5H38.5" stroke="#8EF1DE" stroke-width="2.4" stroke-linecap="round" />

  <circle cx="46" cy="18" r="4" fill="#76D7C4" />
  <path d="M46 15.7V20.3" stroke="#0D1313" stroke-width="1.6" stroke-linecap="round" />
  <path d="M43.7 18H48.3" stroke="#0D1313" stroke-width="1.6" stroke-linecap="round" />
</svg>
